<!-- icon666.com - MILLIONS vector ICONS FREE --><svg version="1.1" id="Layer_1" xmlns="http://www.w3.org/2000/svg" xmlns:xlink="http://www.w3.org/1999/xlink" x="0px" y="0px" viewBox="0 0 64 64" enable-background="new 0 0 64 64" xml:space="preserve"><g id="Blocknote"><path d="M23,27.0510807h18c0.5810013,0,1.0518112-0.4707012,1.0518112-1.0517006 c0-0.5811005-0.4708099-1.0517998-1.0518112-1.0517998H23c-0.5811005,0-1.0517998,0.4706993-1.0517998,1.0517998 C21.9482002,26.5803795,22.4188995,27.0510807,23,27.0510807z"></path><path d="M23,37.0510788h18c0.5810013,0,1.0518112-0.4706993,1.0518112-1.0516968 c0-0.5811005-0.4708099-1.0518036-1.0518112-1.0518036H23c-0.5811005,0-1.0517998,0.4707031-1.0517998,1.0518036 C21.9482002,36.5803795,22.4188995,37.0510788,23,37.0510788z"></path><path d="M23,47.0510788h18c0.5810013,0,1.0518112-0.4706993,1.0518112-1.0516968 c0-0.5811005-0.4708099-1.0518036-1.0518112-1.0518036H23c-0.5811005,0-1.0517998,0.4707031-1.0517998,1.0518036 C21.9482002,46.5803795,22.4188995,47.0510788,23,47.0510788z"></path><path d="M49.3290977,19.284481c-0.5527,0-1,0.4473-1,1v33H16.3290997v-33c0-0.5527-0.4472876-1-0.999999-1c-0.5527,0-1,0.4473-1,1 v34c0,0.5527,0.4473,1,1,1h33.9999962c0.5527153,0,1-0.4473,1-1v-34 C50.3290977,19.731781,49.881813,19.284481,49.3290977,19.284481z"></path><path d="M53.006813,10.5510807H47V5.0412803h-8.0418015c0.0744019-0.4675002,0.151001-1.6556001-0.709198-2.8115001 c-1-1.3427-2.8651886-2.0858998-5.544899-2.2089999c-3.2744007-0.1474-5.5625019,0.5137-6.7881012,1.9756 c-0.9020004,1.0771002-0.9850006,2.3438997-0.8800011,3.0448999H17v5.5098004h-6.0067997 c-2.7529993,0-4.9931998,2.2441998-4.9931998,5.0019999v43.4442978c0,2.7578011,2.2402005,5.0020027,4.9931998,5.0020027H53.006813 C55.7598114,63.999382,58,61.7551804,58,58.9973793V15.5530806C58,12.7952805,55.7598114,10.5510807,53.006813,10.5510807z M27.4696999,3.2571802c0.5585995-0.6464999,1.9081993-1.3896999,5.142601-1.2382998 c2,0.0918,3.3876991,0.5683,4.0126991,1.3788998c0.5,0.6494,0.3583984,1.3447001,0.3563995,1.3594l-0.0712013,0.2841001h-9.842598 l-0.0480995-0.2480001C27.012701,4.7590804,26.8652,3.9563804,27.4696999,3.2571802z M19,7.0412803h26v7.9999995H19V7.0412803z M56,58.9973793c0,1.6553001-1.3428001,3.0020027-2.993187,3.0020027H10.9932003 c-1.6503878,0-2.9931993-1.3467026-2.9931993-3.0020027V15.5530806c0-1.6553001,1.3428116-3.0019999,2.9931993-3.0019999H17v4.4902 h30v-4.4902h6.006813c1.6503868,0,2.993187,1.3466997,2.993187,3.0019999V58.9973793z"></path></g></svg>