<!-- icon666.com - MILLIONS vector ICONS FREE --><svg version="1.1" id="Capa_1" xmlns="http://www.w3.org/2000/svg" xmlns:xlink="http://www.w3.org/1999/xlink" x="0px" y="0px" viewBox="0 0 480 480" style="enable-background:new 0 0 480 480;" xml:space="preserve"><g><g><path d="M360,64h-48V24c0-13.255-10.745-24-24-24h-96c-13.255,0-24,10.745-24,24v40h-48c-22.08,0.026-39.974,17.92-40,40v24 h16.352l14.264,313.824c0.943,21.375,18.564,38.21,39.96,38.176h178.848c21.413,0.051,39.057-16.792,40-38.184L383.648,128H400 v-24C399.974,81.92,382.081,64.026,360,64z M184,24c0-4.418,3.582-8,8-8h96c4.418,0,8,3.582,8,8v40h-16V32h-80v32h-16V24z M264,48 v16h-48V48H264z M353.4,441.088c-0.582,12.828-11.159,22.925-24,22.912H150.576c-12.841,0.013-23.418-10.084-24-22.912 L112.376,128h255.248L353.4,441.088z M384,112H96v-8c0-13.255,10.745-24,24-24h240c13.255,0,24,10.745,24,24V112z"></path></g></g><g><g><path d="M216,160v256h48V160H216z M248,400h-16V176h16V400z"></path></g></g><g><g><path d="M280,160v256h48V160H280z M312,400h-16V176h16V400z"></path></g></g><g><g><path d="M152,160v256h48V160H152z M184,400h-16V176h16V400z"></path></g></g></svg>